<svg xmlns="http://www.w3.org/2000/svg" width="512" height="512" viewBox="0 0 470 470"><g fill="#D80027"><path d="M167.313 209.123c-2.12-3.56-6.723-4.726-10.28-2.605l-87.37 52.04c-2.27 1.35-3.663 3.8-3.663 6.442s1.392 5.09 3.662 6.443l87.37 52.04c1.202.716 2.524 1.057 3.83 1.057 2.556 0 5.048-1.308 6.45-3.663 2.12-3.56.953-8.162-2.605-10.28L88.157 265l76.55-45.596c3.56-2.12 4.726-6.722 2.606-10.28zm135.375 111.754c1.403 2.356 3.894 3.663 6.45 3.663 1.306 0 2.628-.34 3.83-1.058l87.37-52.04c2.27-1.352 3.662-3.8 3.662-6.442s-1.392-5.09-3.662-6.443l-87.37-52.04c-3.557-2.12-8.162-.953-10.28 2.606-2.12 3.56-.953 8.162 2.605 10.28L381.843 265l-76.55 45.596c-3.56 2.12-4.726 6.722-2.605 10.28zM263.72 208.78l-69.893 104.078c-2.31 3.438-1.394 8.098 2.045 10.408 1.284.862 2.737 1.274 4.175 1.274 2.415 0 4.786-1.165 6.233-3.32l69.893-104.078c2.31-3.438 1.394-8.098-2.045-10.408-3.44-2.31-8.1-1.392-10.408 2.046z"/><path d="M462.5 22.5H7.5C3.357 22.5 0 25.858 0 30v410c0 4.142 3.357 7.5 7.5 7.5h455c4.143 0 7.5-3.358 7.5-7.5v-80c0-4.142-3.357-7.5-7.5-7.5s-7.5 3.358-7.5 7.5v72.5H15v-335h440V330c0 4.142 3.357 7.5 7.5 7.5s7.5-3.358 7.5-7.5V30c0-4.142-3.357-7.5-7.5-7.5zM15 37.5h277.5v45H15v-45zm292.5 45v-45H455v45H307.5z"/><path d="M381.5 52c-4.41 0-8 3.59-8 8s3.59 8 8 8 8-3.59 8-8-3.59-8-8-8zm-41 0c-4.41 0-8 3.59-8 8s3.59 8 8 8 8-3.59 8-8-3.59-8-8-8zm82 0c-4.41 0-8 3.59-8 8s3.59 8 8 8 8-3.59 8-8-3.59-8-8-8z"/></g></svg>