<svg xmlns="http://www.w3.org/2000/svg" width="512" height="512" viewBox="0 0 333.825 333.825"><path fill="#D80027" d="M105.195 137.576c-10.85 0-19.675 8.812-19.675 19.64 0 10.84 8.82 19.644 19.675 19.644 10.835 0 19.633-8.803 19.633-19.645.01-10.827-8.797-19.64-19.633-19.64z"/><path fill="#D80027" d="M230.89 80.3h-1.332l-1.22.587c-21.484 10.635-38.97 15.553-56.29 15.946-.572-7.317-.665-21.404 5.86-30.535 3.232-4.527 7.688-7.185 13.597-8.148 2.685-.43 5.416-.855 8.137-1.272 30.354-4.68 64.737-9.998 73.648-39.112l-11.024-3.372c-6.792 22.2-36.06 26.72-64.384 31.096-2.762.418-5.506.856-8.202 1.285-9.007 1.453-16.138 5.78-21.17 12.865-8.208 11.53-8.644 27.59-8.067 36.79-15.433-1.427-31.997-6.408-53.452-15.995l-1.11-.51h-1.24C43.95 79.925 0 187.15 0 259.425c0 17.28 2.534 31.213 7.527 41.402C13.47 313 22.893 319.432 34.71 319.432c26.95 0 43.46-15.763 59.418-31.016 18.36-17.52 37.33-35.656 74.504-35.656 30.606 0 54.157 18.64 76.903 36.642 18.95 15.024 36.87 29.195 56.625 29.195 10.893 0 19.48-5.464 24.884-15.8 4.492-8.58 6.78-20.493 6.78-35.41 0-63.218-46.608-187.088-102.933-187.088zM105.196 188.39c-17.21 0-31.21-13.992-31.21-31.18 0-17.187 13.994-31.163 31.21-31.163 17.174 0 31.17 13.976 31.17 31.162.007 17.18-13.996 31.18-31.17 31.18zm123.58-76.307c6.673-4.23 16.088-2.102 20.286 4.5 2.108 3.297 2.8 7.233 1.958 11.055-.858 3.837-3.152 7.11-6.467 9.217-2.353 1.5-5.08 2.294-7.86 2.294-5.05 0-9.686-2.54-12.41-6.79-4.336-6.83-2.318-15.93 4.496-20.28zm-29.572 46.567c-4.348-6.845-2.33-15.94 4.48-20.275 6.658-4.25 16.08-2.126 20.277 4.488 2.11 3.31 2.81 7.245 1.96 11.082-.84 3.825-3.14 7.095-6.44 9.2-2.38 1.497-5.09 2.296-7.88 2.296-5.04 0-9.68-2.54-12.39-6.79zm39.584 35.06c-2.354 1.494-5.086 2.3-7.88 2.3-5.055 0-9.69-2.553-12.398-6.805-2.108-3.303-2.806-7.23-1.952-11.06.84-3.832 3.134-7.1 6.437-9.212 6.653-4.24 16.062-2.126 20.296 4.49 4.34 6.848 2.32 15.938-4.5 20.286zm31.537-35.504c-.853 3.825-3.14 7.095-6.455 9.21-2.36 1.505-5.087 2.31-7.88 2.31-5.05 0-9.673-2.55-12.4-6.803-2.113-3.31-2.804-7.233-1.957-11.07.853-3.822 3.146-7.1 6.462-9.218 6.652-4.22 16.038-2.113 20.27 4.504 2.12 3.3 2.812 7.24 1.96 11.06z"/></svg>