<?xml version="1.0" standalone="no"?>
<!DOCTYPE svg PUBLIC "-//W3C//DTD SVG 20010904//EN"
 "http://www.w3.org/TR/2001/REC-SVG-20010904/DTD/svg10.dtd">
<svg version="1.0" xmlns="http://www.w3.org/2000/svg"
 width="745.000000pt" height="732.000000pt" viewBox="0 0 745.000000 732.000000"
 preserveAspectRatio="xMidYMid meet">
<metadata>
Created by potrace 1.13, written by Peter Selinger 2001-2015
</metadata>
<g transform="translate(0.000000,732.000000) scale(0.100000,-0.100000)"
fill="#000000" stroke="none">
<path d="M3635 7238 c-823 -33 -1611 -364 -2242 -940 -398 -363 -753 -899
-933 -1411 -80 -229 -143 -486 -176 -727 -21 -156 -30 -610 -15 -782 96 -1079
680 -2053 1591 -2653 580 -382 1235 -578 1935 -578 247 -1 388 11 613 49 877
147 1688 640 2223 1349 219 290 424 656 424 757 0 80 -62 142 -143 142 -82 0
-105 -22 -179 -169 -115 -228 -251 -443 -397 -625 -86 -107 -344 -368 -456
-460 -794 -657 -1850 -900 -2846 -655 -600 147 -1125 450 -1559 896 -208 215
-355 410 -500 664 -210 368 -347 788 -401 1226 -23 180 -23 566 -1 744 76 616
313 1181 695 1661 111 140 366 395 506 506 479 382 1048 620 1657 694 163 20
556 23 709 5 628 -72 1217 -313 1690 -691 138 -111 416 -388 520 -520 162
-204 323 -469 430 -709 92 -205 191 -529 230 -751 15 -82 31 -113 73 -139 87
-54 211 0 224 97 6 44 -5 116 -43 282 -53 229 -131 454 -238 690 -342 747
-975 1381 -1726 1726 -529 243 -1065 347 -1665 322z"/>
<path d="M3764 6396 c-17 -7 -40 -27 -51 -42 -11 -16 -208 -355 -438 -754
-230 -399 -473 -819 -540 -935 l-121 -210 -405 -5 c-449 -6 -437 -4 -479 -73
-37 -60 -17 -147 43 -191 27 -20 45 -21 348 -26 l319 -5 -86 -150 c-48 -82
-263 -456 -479 -830 -609 -1054 -575 -993 -575 -1038 0 -53 25 -102 65 -127
32 -20 43 -20 2465 -20 2422 0 2433 0 2465 20 60 37 83 127 49 193 -9 18 -195
340 -412 717 -217 377 -467 808 -554 959 -87 151 -158 276 -158 278 0 2 165 3
366 3 416 -1 410 -2 452 80 27 52 24 105 -9 152 -45 62 65 58 -1574 58 -823 0
-1495 4 -1493 8 13 33 862 1492 868 1492 4 0 139 -228 300 -507 455 -788 409
-715 460 -741 74 -38 148 -18 191 51 16 25 19 44 16 87 -4 51 -29 99 -391 725
-213 369 -405 700 -426 736 -22 36 -52 74 -67 84 -36 24 -110 29 -149 11z
m1108 -2248 c8 -7 42 -60 75 -118 32 -58 272 -473 531 -922 260 -450 472 -820
472 -823 0 -3 -954 -5 -2120 -5 -1166 0 -2120 2 -2120 5 0 5 1033 1800 1066
1853 l14 22 1033 0 c812 0 1036 -3 1049 -12z"/>
</g>
</svg>
