<svg xmlns="http://www.w3.org/2000/svg" width="512" height="512" viewBox="0 0 55 55"><path fill="#D80027" d="M.5 55h54V37H.5v18zm17-11h4v-2c0-.553.447-1 1-1s1 .447 1 1v2h24c.553 0 1 .447 1 1s-.447 1-1 1h-24v2c0 .553-.447 1-1 1s-1-.447-1-1v-2h-4c-.553 0-1-.447-1-1s.447-1 1-1zm-7-2c0-.553.447-1 1-1s1 .447 1 1v6c0 .553-.447 1-1 1s-1-.447-1-1v-6zm-4 0c0-.553.447-1 1-1s1 .447 1 1v6c0 .553-.447 1-1 1s-1-.447-1-1v-6zM.5 0v35h54V0H.5zm33.537 18.844l-11 7c-.164.103-.35.156-.537.156-.165 0-.33-.04-.48-.123-.32-.176-.52-.512-.52-.877V11c0-.365.2-.7.52-.877.32-.175.708-.162 1.018.033l11 7c.287.184.462.502.462.844s-.175.66-.463.844z"/></svg>