<svg xmlns="http://www.w3.org/2000/svg" viewBox="0 0 255.875 255.875" width="512" height="512"><g fill="#D80027"><path d="M85.57 58.25v45.024c0 .83.67 1.5 1.5 1.5h10c.83 0 1.5-.67 1.5-1.5V58.25l21.38-56.217c.174-.46.112-.98-.168-1.385S119.042 0 118.547 0H107.85c-.623 0-1.182.385-1.403.967L92.07 38.77 77.693.968c-.22-.582-.78-.967-1.4-.967h-10.7c-.493 0-.955.243-1.235.648-.28.406-.342.924-.167 1.385L85.57 58.25z"/><path d="M109.503 57.15V87.18c0 10.936 8.897 19.833 19.833 19.833 10.936 0 19.834-8.897 19.834-19.833V57.15c0-10.937-8.897-19.834-19.834-19.834-10.936 0-19.833 8.897-19.833 19.833zM136.17 87.18c0 3.768-3.065 6.833-6.834 6.833-3.768 0-6.833-3.065-6.833-6.833V57.15c0-3.77 3.065-6.834 6.833-6.834 3.768 0 6.834 3.065 6.834 6.833V87.18zM174.404 103.19c2.404 0 4.7-.45 6.834-1.238v1.322c0 .83.67 1.5 1.5 1.5h10c.83 0 1.5-.67 1.5-1.5V42.325c0-.83-.67-1.5-1.5-1.5h-10c-.83 0-1.5.67-1.5 1.5v41.033c0 3.768-3.065 6.833-6.834 6.833-3.768 0-6.833-3.064-6.833-6.832V42.325c0-.83-.67-1.5-1.5-1.5h-10c-.828 0-1.5.67-1.5 1.5v41.033c0 10.936 8.898 19.833 19.834 19.833zM150.325 179.343c-3.768 0-6.833 3.065-6.833 6.833v25.033c0 3.767 3.065 6.832 6.833 6.832s6.834-3.065 6.834-6.833v-25.034c0-3.768-3.067-6.833-6.835-6.833zM193.6 178.843c-3.768 0-6.833 3.065-6.833 6.833v4.567h13.667v-4.567c0-3.768-3.066-6.833-6.834-6.833z"/><path d="M197.938 115.875h-140c-29.307 0-53.15 23.843-53.15 53.15v33.7c0 29.306 23.843 53.15 53.15 53.15h140c29.307 0 53.15-23.844 53.15-53.15v-33.7c0-29.307-23.843-53.15-53.15-53.15zM76.692 224.625c0 .83-.67 1.5-1.5 1.5h-10c-.83 0-1.5-.67-1.5-1.5v-71h-14.75c-.83 0-1.5-.67-1.5-1.5v-10c0-.83.67-1.5 1.5-1.5h42.5c.83 0 1.5.67 1.5 1.5v10c0 .83-.67 1.5-1.5 1.5h-14.75v71zm47.917-24.5v29.84c0 .83-.672 1.5-1.5 1.5h-10c-.83 0-1.5-.67-1.5-1.5v-1.013c-2.135.787-4.43 1.24-6.835 1.24-10.936 0-19.833-7.546-19.833-19.834v-33.4c0-.828.67-1.5 1.5-1.5h10c.83 0 1.5.672 1.5 1.5v33.4c0 3.768 3.065 6.833 6.833 6.833 3.768 0 6.834-3.064 6.834-6.832V176.958c0-.83.67-1.5 1.5-1.5h10c.828 0 1.5.67 1.5 1.5v23.167zm45.55 11.084c0 10.935-8.898 19.832-19.834 19.832-2.404 0-4.7-.452-6.833-1.24v1.097c0 .828-.67 1.5-1.5 1.5h-10c-.83 0-1.5-.672-1.5-1.5v-86.774c0-.83.67-1.5 1.5-1.5h10c.83 0 1.5.67 1.5 1.5v23.455c2.134-.786 4.43-1.238 6.833-1.238 10.936 0 19.833 8.897 19.833 19.833v25.034zm43.273-9.467c0 .83-.67 1.5-1.5 1.5h-25.167v7.966c0 3.767 3.065 6.832 6.833 6.832 3.767 0 6.833-3.065 6.833-6.833 0-.83.67-1.5 1.5-1.5h10c.83 0 1.5.67 1.5 1.5 0 10.935-8.898 19.832-19.834 19.832-10.937 0-19.834-8.897-19.834-19.833v-25.534c0-10.936 8.898-19.833 19.833-19.833 10.935 0 19.833 8.897 19.833 19.833v16.067z"/></g></svg>