<svg xmlns="http://www.w3.org/2000/svg" width="512" height="512" viewBox="0 0 97.75 97.75"><g fill="#D80027"><path d="M25.676 52.482h3.875v20.973h3.67V52.482h3.95v-3.435H25.68m31 6c-1.214 0-2.345.66-3.408 1.97v-7.97h-3.295v24.41h3.295v-1.764c1.1 1.36 2.23 2.013 3.404 2.013 1.31 0 2.193-.69 2.633-2.044.22-.77.33-1.982.33-3.665v-7.242c0-1.722-.11-2.924-.33-3.655-.44-1.364-1.33-2.054-2.64-2.054zm-.33 13.21c0 1.642-.484 2.452-1.436 2.452-.54 0-1.09-.26-1.642-.82V58.81c.55-.545 1.103-.803 1.644-.803.95 0 1.435.845 1.435 2.485v7.762zm-12.52.91c-.73 1.033-1.424 1.542-2.086 1.542-.44 0-.69-.26-.77-.78-.03-.11-.03-.51-.03-1.28V55.26h-3.296v14.38c0 1.285.11 2.153.29 2.705.332.922 1.064 1.354 2.124 1.354 1.214 0 2.458-.73 3.768-2.24v1.984h3.298V55.27H43.83v13.9zm2.827-30.7c1.073 0 1.588-.85 1.588-2.55v-7.733c0-1.7-.513-2.548-1.586-2.548-1.08 0-1.59.848-1.59 2.548v7.73c0 1.702.51 2.552 1.59 2.552z"/><path d="M48.875 0C21.882 0 0 21.882 0 48.875S21.882 97.75 48.875 97.75 97.75 75.868 97.75 48.875 75.868 0 48.875 0zm5.436 22.86h3.33v13.532c0 .78 0 1.186.04 1.295.08.516.34.78.78.78.67 0 1.37-.516 2.11-1.56V22.86h3.33v18.38h-3.33v-2.005c-1.324 1.52-2.59 2.257-3.803 2.257-1.072 0-1.812-.435-2.146-1.365-.184-.557-.295-1.436-.295-2.733V22.86zm-12.57 5.993c0-1.965.34-3.4 1.05-4.33.92-1.257 2.218-1.885 3.878-1.885 1.668 0 2.964.628 3.885 1.885.698.928 1.03 2.365 1.03 4.33v6.436c0 1.95-.332 3.4-1.03 4.32-.92 1.25-2.217 1.88-3.885 1.88-1.66 0-2.96-.63-3.88-1.88-.71-.92-1.044-2.37-1.044-4.33v-6.43zm-8.91-12.277l2.62 9.685 2.52-9.68h3.74l-4.45 14.67v9.99h-3.69v-9.99c-.333-1.77-1.072-4.36-2.26-7.8-.775-2.29-1.59-4.583-2.364-6.87h3.885zM75.19 75.06c-.67 2.9-3.04 5.04-5.896 5.36-6.763.756-13.604.76-20.42.756-6.813.004-13.658 0-20.42-.755-2.854-.32-5.226-2.46-5.892-5.36-.95-4.12-.95-8.63-.95-12.89s.01-8.76.96-12.89c.67-2.9 3.04-5.04 5.894-5.35 6.762-.75 13.606-.76 20.42-.75 6.814-.002 13.658 0 20.42.757 2.855.32 5.227 2.458 5.896 5.358.947 4.13.94 8.64.94 12.89s-.003 8.764-.954 12.89z"/><path d="M67.17 55.046c-1.686 0-2.995.62-3.947 1.864-.7.92-1.018 2.342-1.018 4.285v6.37c0 1.934.357 3.366 1.06 4.277.95 1.242 2.263 1.863 3.987 1.863 1.72 0 3.072-.65 3.984-1.972.4-.584.66-1.245.77-1.975.03-.33.07-1.06.07-2.124v-.48h-3.36c0 1.32-.044 2.054-.073 2.233-.188.88-.662 1.32-1.473 1.32-1.132 0-1.686-.84-1.686-2.52V64.96h6.592v-3.767c0-1.943-.33-3.365-1.02-4.285-.92-1.242-2.232-1.862-3.886-1.862zm1.612 7.172h-3.296v-1.683c0-1.682.553-2.523 1.654-2.523 1.09 0 1.642.842 1.642 2.523v1.683z"/></g></svg>